M48
; DRILL file {KiCad 8.0.3} date 2024-12-07T16:18:12-0300
; FORMAT={-:-/ absolute / inch / decimal}
; #@! TF.CreationDate,2024-12-07T16:18:12-03:00
; #@! TF.GenerationSoftware,Kicad,Pcbnew,8.0.3
; #@! TF.FileFunction,Plated,1,2,PTH
FMAT,2
INCH
; #@! TA.AperFunction,Plated,PTH,ViaDrill
T1C0.0236
; #@! TA.AperFunction,Plated,PTH,ComponentDrill
T2C0.0315
; #@! TA.AperFunction,Plated,PTH,ComponentDrill
T3C0.0394
; #@! TA.AperFunction,Plated,PTH,ComponentDrill
T4C0.0469
; #@! TA.AperFunction,Plated,PTH,ComponentDrill
T5C0.0472
; #@! TA.AperFunction,Plated,PTH,ComponentDrill
T6C0.0787
%
G90
G05
T1
X2.8736Y-2.0252
X2.8744Y-1.9094
X2.9933Y-1.9106
X2.9933Y-2.0291
X3.7189Y-1.7264
X3.7354Y-1.8673
X3.8528Y-1.635
X3.9Y-4.1563
X4.1953Y-1.6051
X4.3579Y-1.4787
X4.3583Y-1.3638
X4.403Y-2.1533
X4.4772Y-1.3642
X4.4783Y-1.4811
X4.5155Y-4.3894
X4.6055Y-2.9848
X4.6478Y-1.606
X4.662Y-3.2253
X4.7575Y-1.774
X4.7579Y-3.7565
X4.7657Y-3.9187
X4.7903Y-2.9129
X4.8433Y-3.2189
X4.8493Y-3.959
X4.9079Y-3.1465
X4.9258Y-5.3047
X4.9634Y-3.9555
X4.9682Y-5.8783
X4.9902Y-3.4133
X5.0035Y-4.0531
X5.0382Y-3.1441
X5.0674Y-5.8053
X5.0846Y-3.6974
X5.1053Y-4.012
X5.1492Y-3.1422
X5.1669Y-3.5716
X5.1688Y-3.6531
X5.1884Y-2.2458
X5.1891Y-2.13
X5.2508Y-3.9669
X5.287Y-5.4691
X5.308Y-2.1312
X5.308Y-2.2497
X5.3209Y-3.128
X5.3287Y-4.2323
X5.4789Y-5.3195
X5.5169Y-3.374
X5.6203Y-1.3119
X5.6264Y-3.148
X5.6265Y-5.8053
X5.7689Y-3.1452
X5.7994Y-3.9419
X5.801Y-3.8568
X5.8453Y-3.8993
X5.864Y-5.4433
X5.8864Y-3.8584
X5.8907Y-3.9442
X5.9167Y-3.1596
X5.9191Y-1.4804
X6.0205Y-3.1681
X6.0537Y-5.3096
X6.0662Y-3.3897
X6.0888Y-1.93
X6.1268Y-2.1804
X6.1683Y-3.3879
X6.1855Y-5.8053
X6.1911Y-1.4804
X6.2118Y-4.2228
X6.4366Y-5.4593
X6.5423Y-4.1691
X7.4047Y-2.357
X7.4232Y-1.5031
X7.424Y-1.3874
X7.5429Y-1.3886
X7.5429Y-1.5071
X7.6203Y-4.9475
X7.6654Y-2.7913
X7.7917Y-2.8713
X8.2008Y-1.7134
X8.2063Y-2.0791
X8.2975Y-1.6231
X8.5193Y-5.1378
X8.5201Y-5.022
X8.639Y-5.0232
X8.639Y-5.1417
X8.902Y-1.6028
T2
X8.2984Y-2.5851
X8.2984Y-2.6835
X8.4244Y-2.5851
X8.4244Y-2.6835
T3
X2.7352Y-2.7202
X2.8352Y-2.7202
X2.9352Y-2.7202
X3.0352Y-2.7202
X3.1352Y-2.7202
X3.2327Y-4.3146
X3.2352Y-2.7202
X3.3327Y-4.3146
X3.3352Y-2.7202
X3.4327Y-4.3146
X3.4352Y-2.7202
X3.5327Y-4.3146
X3.5352Y-2.7202
X3.6327Y-4.3146
X3.6352Y-2.7202
X3.7327Y-4.3146
X3.7352Y-2.7202
X3.8327Y-4.3146
X3.8352Y-2.7202
X3.9327Y-4.3146
X3.9352Y-2.7202
X4.2197Y-5.6397
X4.2197Y-5.7397
X4.2197Y-5.8397
X4.2197Y-5.9397
X6.8742Y-2.1547
X6.8752Y-2.2537
X6.8754Y-2.6862
X6.8764Y-2.5882
X7.5962Y-2.1551
X7.5962Y-2.6871
X7.5972Y-2.2541
X7.5972Y-2.5891
T4
X2.8937Y-1.413
X2.9937Y-1.413
X3.0937Y-1.413
X3.1937Y-1.413
X3.2937Y-1.413
X3.3937Y-1.413
X4.9673Y-5.6362
X5.0673Y-5.6362
X5.1673Y-5.6362
X5.2673Y-5.6362
X5.5232Y-5.6362
X5.6232Y-5.6362
X5.7232Y-5.6362
X5.8232Y-5.6362
X6.0819Y-5.6369
X6.1819Y-5.6369
X6.2819Y-5.6369
X6.3819Y-5.6369
X8.1949Y-1.4252
X8.2949Y-1.4252
X8.3949Y-1.4252
X8.4949Y-1.4252
X8.5949Y-1.4252
X8.6949Y-1.4252
T5
X5.137Y-2.4276
X5.137Y-2.7276
X5.386Y-1.7901
X5.436Y-1.5901
X5.486Y-1.7901
X5.536Y-1.5901
X5.586Y-1.7901
X5.636Y-1.5901
X5.686Y-1.7901
X5.736Y-1.5901
X5.786Y-1.7901
X5.836Y-1.5901
X5.886Y-1.7901
X5.936Y-1.5901
X5.986Y-1.7901
X6.036Y-1.5901
X6.086Y-1.7901
X6.4165Y-2.4276
X6.4165Y-2.7276
X6.9232Y-3.002
X6.9232Y-3.102
X6.9232Y-3.202
X6.9232Y-3.302
X6.9232Y-3.402
X6.9232Y-3.502
X6.9232Y-3.602
X8.1472Y-3.2347
X8.2472Y-3.2347
T6
X8.3177Y-2.3973
X8.3177Y-2.8713
T3
G00X7.2305Y-3.0972
M15
G01X7.2305Y-3.0499
M16
G05
G00X7.4155Y-3.0972
M15
G01X7.4155Y-3.0499
M16
G05
G00X7.6006Y-3.0972
M15
G01X7.6006Y-3.0499
M16
G05
G00X8.7988Y-3.2883
M15
G01X8.7004Y-3.2883
M16
G05
G00X8.8602Y-3.0698
M15
G01X8.8602Y-3.1288
M16
G05
G00X8.9492Y-3.1662
M15
G01X8.9492Y-3.2253
M16
G05
M30
