%TF.GenerationSoftware,KiCad,Pcbnew,8.0.3*%
%TF.CreationDate,2026-03-06T14:25:17-03:00*%
%TF.ProjectId,robo_2wd,726f626f-5f32-4776-942e-6b696361645f,rev?*%
%TF.SameCoordinates,Original*%
%TF.FileFunction,Soldermask,Bot*%
%TF.FilePolarity,Negative*%
%FSLAX46Y46*%
G04 Gerber Fmt 4.6, Leading zero omitted, Abs format (unit mm)*
G04 Created by KiCad (PCBNEW 8.0.3) date 2026-03-06 14:25:17*
%MOMM*%
%LPD*%
G01*
G04 APERTURE LIST*
G04 Aperture macros list*
%AMRoundRect*
0 Rectangle with rounded corners*
0 $1 Rounding radius*
0 $2 $3 $4 $5 $6 $7 $8 $9 X,Y pos of 4 corners*
0 Add a 4 corners polygon primitive as box body*
4,1,4,$2,$3,$4,$5,$6,$7,$8,$9,$2,$3,0*
0 Add four circle primitives for the rounded corners*
1,1,$1+$1,$2,$3*
1,1,$1+$1,$4,$5*
1,1,$1+$1,$6,$7*
1,1,$1+$1,$8,$9*
0 Add four rect primitives between the rounded corners*
20,1,$1+$1,$2,$3,$4,$5,0*
20,1,$1+$1,$4,$5,$6,$7,0*
20,1,$1+$1,$6,$7,$8,$9,0*
20,1,$1+$1,$8,$9,$2,$3,0*%
G04 Aperture macros list end*
%ADD10C,2.000000*%
%ADD11R,2.000000X2.000000*%
%ADD12C,6.400000*%
%ADD13RoundRect,0.287356X-0.712644X-0.807644X0.712644X-0.807644X0.712644X0.807644X-0.712644X0.807644X0*%
%ADD14O,2.000000X2.190000*%
%ADD15C,3.200000*%
%ADD16C,2.400000*%
%ADD17O,2.400000X2.400000*%
%ADD18RoundRect,0.250000X0.620000X0.845000X-0.620000X0.845000X-0.620000X-0.845000X0.620000X-0.845000X0*%
%ADD19O,1.740000X2.190000*%
%ADD20O,2.000000X2.000000*%
%ADD21O,2.000000X3.500000*%
%ADD22RoundRect,0.250000X-0.620000X-0.845000X0.620000X-0.845000X0.620000X0.845000X-0.620000X0.845000X0*%
%ADD23R,1.400000X1.400000*%
%ADD24C,1.400000*%
%ADD25C,3.000000*%
%ADD26RoundRect,0.377297X2.122703X0.772703X-2.122703X0.772703X-2.122703X-0.772703X2.122703X-0.772703X0*%
%ADD27RoundRect,0.295276X-0.604724X1.454724X-0.604724X-1.454724X0.604724X-1.454724X0.604724X1.454724X0*%
%ADD28RoundRect,0.246063X-0.503937X1.503937X-0.503937X-1.503937X0.503937X-1.503937X0.503937X1.503937X0*%
%ADD29R,2.200000X2.200000*%
%ADD30O,2.200000X2.200000*%
%ADD31RoundRect,0.150000X-0.200000X0.150000X-0.200000X-0.150000X0.200000X-0.150000X0.200000X0.150000X0*%
%ADD32RoundRect,0.375000X-0.375000X0.625000X-0.375000X-0.625000X0.375000X-0.625000X0.375000X0.625000X0*%
%ADD33RoundRect,0.500000X-1.400000X0.500000X-1.400000X-0.500000X1.400000X-0.500000X1.400000X0.500000X0*%
%ADD34RoundRect,0.287356X0.807644X-0.712644X0.807644X0.712644X-0.807644X0.712644X-0.807644X-0.712644X0*%
%ADD35O,2.190000X2.000000*%
%ADD36RoundRect,0.150000X0.200000X-0.150000X0.200000X0.150000X-0.200000X0.150000X-0.200000X-0.150000X0*%
%ADD37RoundRect,0.250000X-0.475000X0.337500X-0.475000X-0.337500X0.475000X-0.337500X0.475000X0.337500X0*%
G04 APERTURE END LIST*
D10*
%TO.C,U6*%
X82110000Y-109590000D03*
X84650000Y-109590000D03*
X87190000Y-109590000D03*
X89730000Y-109590000D03*
X92270000Y-109590000D03*
X94810000Y-109590000D03*
X97350000Y-109590000D03*
D11*
X99890000Y-109590000D03*
%TD*%
D12*
%TO.C,*%
X206000000Y-100000000D03*
%TD*%
D13*
%TO.C,J3*%
X206939400Y-82161100D03*
D14*
X209479400Y-82161100D03*
%TD*%
D12*
%TO.C,*%
X181000000Y-48000000D03*
%TD*%
D15*
%TO.C,*%
X82980000Y-122380000D03*
%TD*%
D12*
%TO.C,*%
X63000000Y-48000000D03*
%TD*%
%TO.C,*%
X232000000Y-133990000D03*
%TD*%
D16*
%TO.C,R1*%
X130479400Y-61661100D03*
D17*
X130479400Y-69281100D03*
%TD*%
D18*
%TO.C,J2*%
X220850000Y-36200000D03*
D19*
X218310000Y-36200000D03*
X215770000Y-36200000D03*
X213230000Y-36200000D03*
X210690000Y-36200000D03*
X208150000Y-36200000D03*
%TD*%
D18*
%TO.C,J1*%
X86200000Y-35890000D03*
D19*
X83660000Y-35890000D03*
X81120000Y-35890000D03*
X78580000Y-35890000D03*
X76040000Y-35890000D03*
X73500000Y-35890000D03*
%TD*%
D11*
%TO.C,J11*%
X107179400Y-143247700D03*
D20*
X107179400Y-145787700D03*
X107179400Y-148327700D03*
X107179400Y-150867700D03*
%TD*%
D11*
%TO.C,J5*%
X69474400Y-69092700D03*
D20*
X72014400Y-69092700D03*
X74554400Y-69092700D03*
X77094400Y-69092700D03*
X79634400Y-69092700D03*
X82174400Y-69092700D03*
X84714400Y-69092700D03*
X87254400Y-69092700D03*
X89794400Y-69092700D03*
X92334400Y-69092700D03*
X94874400Y-69092700D03*
X97414400Y-69092700D03*
X99954400Y-69092700D03*
%TD*%
D15*
%TO.C,*%
X99090000Y-122380000D03*
%TD*%
D21*
%TO.C,SW3*%
X183654400Y-78067700D03*
X188354400Y-78067700D03*
X193054400Y-78067700D03*
%TD*%
D12*
%TO.C,*%
X114000000Y-48000000D03*
%TD*%
D11*
%TO.C,U3*%
X174604606Y-54729680D03*
X174630006Y-57244280D03*
D10*
X174660206Y-65739880D03*
X174634806Y-68229080D03*
D11*
X192943406Y-54738880D03*
X192968806Y-57253480D03*
D10*
X192968806Y-65761880D03*
X192943406Y-68251080D03*
%TD*%
D22*
%TO.C,J7*%
X126170000Y-143158400D03*
D19*
X128710000Y-143158400D03*
X131250000Y-143158400D03*
X133790000Y-143158400D03*
%TD*%
D16*
%TO.C,R2*%
X162979400Y-61661100D03*
D17*
X162979400Y-69281100D03*
%TD*%
D22*
%TO.C,J9*%
X154480000Y-143178400D03*
D19*
X157020000Y-143178400D03*
X159560000Y-143178400D03*
X162100000Y-143178400D03*
%TD*%
D23*
%TO.C,J10*%
X213979400Y-68161100D03*
D24*
X213979400Y-65661100D03*
X210779400Y-65661100D03*
X210779400Y-68161100D03*
D25*
X211269400Y-60891100D03*
X211269400Y-72931100D03*
%TD*%
D26*
%TO.C,J4*%
X222239400Y-83522700D03*
D27*
X227309400Y-81172700D03*
D28*
X225049400Y-78722700D03*
%TD*%
D22*
%TO.C,J8*%
X140290000Y-143158400D03*
D19*
X142830000Y-143158400D03*
X145370000Y-143158400D03*
X147910000Y-143158400D03*
%TD*%
D12*
%TO.C,*%
X66300000Y-148140000D03*
%TD*%
%TO.C,*%
X101000000Y-134000000D03*
%TD*%
D29*
%TO.C,U1*%
X136805600Y-45469500D03*
D30*
X138075600Y-40389500D03*
X139345600Y-45469500D03*
X140615600Y-40389500D03*
X141885600Y-45469500D03*
X143155600Y-40389500D03*
X144425600Y-45469500D03*
X145695600Y-40389500D03*
X146965600Y-45469500D03*
X148235600Y-40389500D03*
X149505600Y-45469500D03*
X150775600Y-40389500D03*
X152045600Y-45469500D03*
X153315600Y-40389500D03*
X154585600Y-45469500D03*
%TD*%
D12*
%TO.C,*%
X206000000Y-140000000D03*
%TD*%
%TO.C,*%
X66300000Y-109210000D03*
%TD*%
%TO.C,*%
X178860000Y-134000000D03*
%TD*%
%TO.C,*%
X66350000Y-134000000D03*
%TD*%
%TO.C,*%
X232000000Y-48000000D03*
%TD*%
D31*
%TO.C,D13*%
X202160000Y-70307500D03*
X202160000Y-68907500D03*
%TD*%
D32*
%TO.C,D14*%
X197554400Y-59442700D03*
X199854400Y-59442700D03*
D33*
X199854400Y-65742700D03*
D32*
X202154400Y-59442700D03*
%TD*%
D34*
%TO.C,J6*%
X175850000Y-91490000D03*
D35*
X175850000Y-88950000D03*
X175850000Y-86410000D03*
X175850000Y-83870000D03*
X175850000Y-81330000D03*
X175850000Y-78790000D03*
X175850000Y-76250000D03*
%TD*%
D31*
%TO.C,D15*%
X212700000Y-78160000D03*
X212700000Y-76760000D03*
%TD*%
D36*
%TO.C,D12*%
X222704400Y-65142700D03*
X222704400Y-66542700D03*
%TD*%
D32*
%TO.C,D10*%
X166529400Y-54442700D03*
X168829400Y-54442700D03*
D33*
X168829400Y-60742700D03*
D32*
X171129400Y-54442700D03*
%TD*%
D37*
%TO.C,C8*%
X222629400Y-70480200D03*
X222629400Y-72555200D03*
%TD*%
M02*
