%TF.GenerationSoftware,KiCad,Pcbnew,8.0.3*%
%TF.CreationDate,2026-03-06T14:25:17-03:00*%
%TF.ProjectId,robo_2wd,726f626f-5f32-4776-942e-6b696361645f,rev?*%
%TF.SameCoordinates,Original*%
%TF.FileFunction,Paste,Top*%
%TF.FilePolarity,Positive*%
%FSLAX46Y46*%
G04 Gerber Fmt 4.6, Leading zero omitted, Abs format (unit mm)*
G04 Created by KiCad (PCBNEW 8.0.3) date 2026-03-06 14:25:17*
%MOMM*%
%LPD*%
G01*
G04 APERTURE LIST*
G04 Aperture macros list*
%AMRoundRect*
0 Rectangle with rounded corners*
0 $1 Rounding radius*
0 $2 $3 $4 $5 $6 $7 $8 $9 X,Y pos of 4 corners*
0 Add a 4 corners polygon primitive as box body*
4,1,4,$2,$3,$4,$5,$6,$7,$8,$9,$2,$3,0*
0 Add four circle primitives for the rounded corners*
1,1,$1+$1,$2,$3*
1,1,$1+$1,$4,$5*
1,1,$1+$1,$6,$7*
1,1,$1+$1,$8,$9*
0 Add four rect primitives between the rounded corners*
20,1,$1+$1,$2,$3,$4,$5,0*
20,1,$1+$1,$4,$5,$6,$7,0*
20,1,$1+$1,$6,$7,$8,$9,0*
20,1,$1+$1,$8,$9,$2,$3,0*%
G04 Aperture macros list end*
%ADD10R,2.500000X1.800000*%
%ADD11RoundRect,0.250000X0.925000X-0.875000X0.925000X0.875000X-0.925000X0.875000X-0.925000X-0.875000X0*%
%ADD12R,0.900000X0.900000*%
%ADD13R,1.500000X0.900000*%
%ADD14R,0.900000X1.500000*%
%ADD15RoundRect,0.237500X0.250000X0.237500X-0.250000X0.237500X-0.250000X-0.237500X0.250000X-0.237500X0*%
%ADD16R,1.550000X1.300000*%
%ADD17RoundRect,0.250000X-0.600000X0.400000X-0.600000X-0.400000X0.600000X-0.400000X0.600000X0.400000X0*%
%ADD18RoundRect,0.237500X-0.250000X-0.237500X0.250000X-0.237500X0.250000X0.237500X-0.250000X0.237500X0*%
%ADD19RoundRect,0.250000X-0.475000X0.337500X-0.475000X-0.337500X0.475000X-0.337500X0.475000X0.337500X0*%
%ADD20RoundRect,0.250000X0.400000X0.625000X-0.400000X0.625000X-0.400000X-0.625000X0.400000X-0.625000X0*%
%ADD21RoundRect,0.150000X-0.150000X0.587500X-0.150000X-0.587500X0.150000X-0.587500X0.150000X0.587500X0*%
%ADD22RoundRect,0.150000X-0.825000X-0.150000X0.825000X-0.150000X0.825000X0.150000X-0.825000X0.150000X0*%
%ADD23RoundRect,0.375000X-0.375000X0.625000X-0.375000X-0.625000X0.375000X-0.625000X0.375000X0.625000X0*%
%ADD24RoundRect,0.500000X-1.400000X0.500000X-1.400000X-0.500000X1.400000X-0.500000X1.400000X0.500000X0*%
%ADD25RoundRect,0.250000X0.475000X-0.337500X0.475000X0.337500X-0.475000X0.337500X-0.475000X-0.337500X0*%
%ADD26RoundRect,0.250000X1.500000X1.000000X-1.500000X1.000000X-1.500000X-1.000000X1.500000X-1.000000X0*%
%ADD27RoundRect,0.250000X-0.337500X-0.475000X0.337500X-0.475000X0.337500X0.475000X-0.337500X0.475000X0*%
%ADD28RoundRect,0.250000X0.625000X-0.400000X0.625000X0.400000X-0.625000X0.400000X-0.625000X-0.400000X0*%
%ADD29RoundRect,0.237500X0.237500X-0.287500X0.237500X0.287500X-0.237500X0.287500X-0.237500X-0.287500X0*%
%ADD30RoundRect,0.250000X-0.400000X-0.625000X0.400000X-0.625000X0.400000X0.625000X-0.400000X0.625000X0*%
%ADD31RoundRect,0.250000X-0.925000X0.875000X-0.925000X-0.875000X0.925000X-0.875000X0.925000X0.875000X0*%
%ADD32RoundRect,0.237500X0.237500X-0.250000X0.237500X0.250000X-0.237500X0.250000X-0.237500X-0.250000X0*%
%ADD33RoundRect,0.237500X-0.237500X0.287500X-0.237500X-0.287500X0.237500X-0.287500X0.237500X0.287500X0*%
%ADD34RoundRect,0.250000X-1.500000X-1.000000X1.500000X-1.000000X1.500000X1.000000X-1.500000X1.000000X0*%
G04 APERTURE END LIST*
D10*
%TO.C,D7*%
X165718600Y-36849500D03*
X161718600Y-36849500D03*
%TD*%
D11*
%TO.C,C7*%
X223450000Y-56690000D03*
X223450000Y-51590000D03*
%TD*%
D12*
%TO.C,U5*%
X149979400Y-100470000D03*
X149979400Y-99070000D03*
X149979400Y-97670000D03*
X148579400Y-100470000D03*
X148579400Y-99070000D03*
X148579400Y-97670000D03*
X147179400Y-100470000D03*
X147179400Y-99070000D03*
X147179400Y-97670000D03*
D13*
X155829400Y-106790000D03*
X155829400Y-105520000D03*
X155829400Y-104250000D03*
X155829400Y-102980000D03*
X155829400Y-101710000D03*
X155829400Y-100440000D03*
X155829400Y-99170000D03*
X155829400Y-97900000D03*
X155829400Y-96630000D03*
X155829400Y-95360000D03*
X155829400Y-94090000D03*
X155829400Y-92820000D03*
X155829400Y-91550000D03*
X155829400Y-90280000D03*
D14*
X154064400Y-89030000D03*
X152794400Y-89030000D03*
X151524400Y-89030000D03*
X150254400Y-89030000D03*
X148984400Y-89030000D03*
X147714400Y-89030000D03*
X146444400Y-89030000D03*
X145174400Y-89030000D03*
X143904400Y-89030000D03*
X142634400Y-89030000D03*
X141364400Y-89030000D03*
X140094400Y-89030000D03*
D13*
X138329400Y-90280000D03*
X138329400Y-91550000D03*
X138329400Y-92820000D03*
X138329400Y-94090000D03*
X138329400Y-95360000D03*
X138329400Y-96630000D03*
X138329400Y-97900000D03*
X138329400Y-99170000D03*
X138329400Y-100440000D03*
X138329400Y-101710000D03*
X138329400Y-102980000D03*
X138329400Y-104250000D03*
X138329400Y-105520000D03*
X138329400Y-106790000D03*
%TD*%
D15*
%TO.C,R11*%
X151590400Y-70890600D03*
X149765400Y-70890600D03*
%TD*%
D16*
%TO.C,SW2*%
X126340000Y-93260000D03*
X118380000Y-93260000D03*
X126340000Y-88760000D03*
X118380000Y-88760000D03*
%TD*%
D17*
%TO.C,D17*%
X155023500Y-76227200D03*
X155023500Y-79727200D03*
%TD*%
D18*
%TO.C,R22*%
X154387500Y-138340000D03*
X156212500Y-138340000D03*
%TD*%
D19*
%TO.C,C3*%
X141025900Y-73028100D03*
X141025900Y-75103100D03*
%TD*%
D10*
%TO.C,D3*%
X165718600Y-49041500D03*
X161718600Y-49041500D03*
%TD*%
D20*
%TO.C,R6*%
X135454400Y-72702700D03*
X132354400Y-72702700D03*
%TD*%
D19*
%TO.C,C11*%
X162735000Y-105280000D03*
X162735000Y-107355000D03*
%TD*%
D10*
%TO.C,D4*%
X129142600Y-48533500D03*
X125142600Y-48533500D03*
%TD*%
D21*
%TO.C,Q3*%
X160690000Y-136402500D03*
X158790000Y-136402500D03*
X159740000Y-138277500D03*
%TD*%
D15*
%TO.C,R18*%
X146702500Y-133658400D03*
X144877500Y-133658400D03*
%TD*%
D18*
%TO.C,R12*%
X141637400Y-70890600D03*
X143462400Y-70890600D03*
%TD*%
D22*
%TO.C,U2*%
X144173900Y-61266600D03*
X144173900Y-62536600D03*
X144173900Y-63806600D03*
X144173900Y-65076600D03*
X144173900Y-66346600D03*
X144173900Y-67616600D03*
X144173900Y-68886600D03*
X149123900Y-68886600D03*
X149123900Y-67616600D03*
X149123900Y-66346600D03*
X149123900Y-65076600D03*
X149123900Y-63806600D03*
X149123900Y-62536600D03*
X149123900Y-61266600D03*
%TD*%
D18*
%TO.C,R16*%
X217887500Y-43010000D03*
X219712500Y-43010000D03*
%TD*%
D23*
%TO.C,U4*%
X220000000Y-51480000D03*
X217700000Y-51480000D03*
D24*
X217700000Y-57780000D03*
D23*
X215400000Y-51480000D03*
%TD*%
D25*
%TO.C,C10*%
X128620000Y-91257500D03*
X128620000Y-89182500D03*
%TD*%
D17*
%TO.C,D16*%
X138523500Y-76227200D03*
X138523500Y-79727200D03*
%TD*%
D19*
%TO.C,C12*%
X159725000Y-105280000D03*
X159725000Y-107355000D03*
%TD*%
D10*
%TO.C,D1*%
X165718600Y-40913500D03*
X161718600Y-40913500D03*
%TD*%
D15*
%TO.C,R19*%
X160702500Y-133658400D03*
X158877500Y-133658400D03*
%TD*%
D21*
%TO.C,Q2*%
X146700000Y-136527500D03*
X144800000Y-136527500D03*
X145750000Y-138402500D03*
%TD*%
D26*
%TO.C,C1*%
X146504400Y-53232700D03*
X140004400Y-53232700D03*
%TD*%
D27*
%TO.C,C5*%
X145566900Y-58967700D03*
X147641900Y-58967700D03*
%TD*%
D28*
%TO.C,R7*%
X158958300Y-69672000D03*
X158958300Y-66572000D03*
%TD*%
D29*
%TO.C,D9*%
X168140000Y-70602500D03*
X168140000Y-68852500D03*
%TD*%
D15*
%TO.C,R17*%
X132102500Y-133158400D03*
X130277500Y-133158400D03*
%TD*%
D21*
%TO.C,Q1*%
X132100000Y-136463400D03*
X130200000Y-136463400D03*
X131150000Y-138338400D03*
%TD*%
D18*
%TO.C,R14*%
X122687500Y-86120000D03*
X124512500Y-86120000D03*
%TD*%
D30*
%TO.C,R10*%
X142129400Y-77667700D03*
X145229400Y-77667700D03*
%TD*%
D31*
%TO.C,C6*%
X212020000Y-51600000D03*
X212020000Y-56700000D03*
%TD*%
D20*
%TO.C,R9*%
X151059500Y-77621600D03*
X147959500Y-77621600D03*
%TD*%
%TO.C,R5*%
X135270000Y-75290000D03*
X132170000Y-75290000D03*
%TD*%
D32*
%TO.C,R15*%
X171140000Y-70665000D03*
X171140000Y-68840000D03*
%TD*%
D18*
%TO.C,R20*%
X126255000Y-138330000D03*
X128080000Y-138330000D03*
%TD*%
D25*
%TO.C,C9*%
X173520000Y-109745000D03*
X173520000Y-107670000D03*
%TD*%
D33*
%TO.C,D11*%
X217840000Y-44930000D03*
X217840000Y-46680000D03*
%TD*%
D19*
%TO.C,C4*%
X152201900Y-72962100D03*
X152201900Y-75037100D03*
%TD*%
D34*
%TO.C,C2*%
X170004600Y-40797500D03*
X176504600Y-40797500D03*
%TD*%
D30*
%TO.C,R4*%
X158494400Y-72532700D03*
X161594400Y-72532700D03*
%TD*%
D18*
%TO.C,R21*%
X139852500Y-138340000D03*
X141677500Y-138340000D03*
%TD*%
D10*
%TO.C,D5*%
X165718600Y-44977500D03*
X161718600Y-44977500D03*
%TD*%
%TO.C,D2*%
X129142600Y-40405500D03*
X125142600Y-40405500D03*
%TD*%
D30*
%TO.C,R3*%
X158590000Y-75240000D03*
X161690000Y-75240000D03*
%TD*%
D16*
%TO.C,SW1*%
X181370000Y-105310000D03*
X173410000Y-105310000D03*
X181370000Y-100810000D03*
X173410000Y-100810000D03*
%TD*%
D10*
%TO.C,D8*%
X129142600Y-36087500D03*
X125142600Y-36087500D03*
%TD*%
D15*
%TO.C,R13*%
X171280000Y-105320000D03*
X169455000Y-105320000D03*
%TD*%
D28*
%TO.C,R8*%
X134879100Y-70103200D03*
X134879100Y-67003200D03*
%TD*%
D10*
%TO.C,D6*%
X129142600Y-44469500D03*
X125142600Y-44469500D03*
%TD*%
M02*
